<?xml version="1.0" encoding="UTF-8" standalone="no"?>
<!DOCTYPE svg PUBLIC "-//W3C//DTD SVG 1.1//EN" "http://www.w3.org/Graphics/SVG/1.1/DTD/svg11.dtd">
<!-- Created with Vectornator (http://vectornator.io/) -->
<svg height="100%" stroke-miterlimit="10" style="fill-rule:nonzero;clip-rule:evenodd;stroke-linecap:round;stroke-linejoin:round;" version="1.1" viewBox="0 0 159 52" width="100%" xml:space="preserve" xmlns="http://www.w3.org/2000/svg" xmlns:vectornator="http://vectornator.io" xmlns:xlink="http://www.w3.org/1999/xlink">
<defs>
<linearGradient gradientTransform="matrix(1 0 0 1 0 0)" gradientUnits="userSpaceOnUse" id="LinearGradient" x1="25.6472" x2="25.6472" y1="5.00882" y2="46.3241">
<stop offset="0" stop-color="#a4c1ff"/>
<stop offset="1" stop-color="#0e78f9"/>
</linearGradient>
<linearGradient gradientTransform="matrix(1 0 0 1 0 0)" gradientUnits="userSpaceOnUse" id="LinearGradient_2" x1="21.7383" x2="21.7383" y1="17.8314" y2="33.4088">
<stop offset="0" stop-color="#ffffff"/>
<stop offset="1" stop-color="#c5d4f7"/>
</linearGradient>
<linearGradient gradientTransform="matrix(1 0 0 1 0 0)" gradientUnits="userSpaceOnUse" id="LinearGradient_3" x1="36.2889" x2="36.2889" y1="17.9817" y2="33.2967">
<stop offset="0" stop-color="#ffffff"/>
<stop offset="1" stop-color="#c5d4f7"/>
</linearGradient>
</defs>
<g id="Untitled" vectornator:layerName="Untitled">
<path d="M19.6723 5.01949C20.4376 5.02481 21.2025 5.03014 21.9327 5.03014L29.3618 5.03014C30.0919 5.03014 30.8568 5.02481 31.6221 5.01949C33.6825 5.00515 35.7459 4.99079 37.1425 5.08022C42.2264 5.4058 45.7326 8.48622 46.1834 13.7204C46.2903 15.6013 46.2877 17.8671 46.2847 20.5392L46.2847 20.54C46.2841 20.9986 46.2836 21.4692 46.2836 21.9519L46.2836 29.381C46.2836 29.8637 46.2841 30.3343 46.2847 30.7929C46.2877 33.4654 46.2903 35.7315 46.1834 37.6125C45.7326 42.8467 42.2264 45.9272 37.1425 46.2527C35.7459 46.3422 33.6825 46.3278 31.6221 46.3135C30.8568 46.3081 30.0919 46.3028 29.3618 46.3028L21.9327 46.3028C21.2025 46.3028 20.4376 46.3081 19.6723 46.3135C17.612 46.3278 15.5486 46.3422 14.152 46.2527C9.06805 45.9272 5.56188 42.8467 5.11108 37.6125C5.0042 35.7316 5.00679 33.4658 5.00983 30.7937L5.00983 30.7929C5.01036 30.3343 5.01089 29.8637 5.01089 29.381L5.01089 21.9519C5.01089 21.4692 5.01036 20.9986 5.00983 20.54L5.00983 20.5392C5.00679 17.8671 5.0042 15.6013 5.11108 13.7204C5.56188 8.48622 9.06805 5.4058 14.152 5.08022C15.5486 4.99079 17.612 5.00515 19.6723 5.01949Z" fill="url(#LinearGradient)" fill-rule="nonzero" opacity="1" stroke="none" vectornator:layerName="path"/>
<g opacity="1" vectornator:layerName="g">
<path d="M11.7206 19.7347C11.7206 18.6836 12.5728 17.8314 13.624 17.8314L26.9475 17.8314C29.6031 17.8314 31.7559 19.9842 31.7559 22.6399L31.7559 31.5055C31.7559 32.5567 30.9038 33.4088 29.8526 33.4088L16.5291 33.4088C13.8735 33.4088 11.7206 31.256 11.7206 28.6004L11.7206 19.7347Z" fill="url(#LinearGradient_2)" fill-rule="nonzero" opacity="1" stroke="none" vectornator:layerName="path"/>
</g>
<g opacity="1" vectornator:layerName="g">
<path d="M32.958 23.3465C32.958 22.6986 33.2368 22.082 33.7232 21.6541L37.5404 18.2961C38.3494 17.5845 39.6197 18.1589 39.6197 19.2363L39.6197 32.0421C39.6197 33.1094 38.3701 33.6874 37.5568 32.9964L34.0527 30.0193C33.3583 29.4293 32.958 28.564 32.958 27.6527L32.958 23.3465Z" fill="url(#LinearGradient_3)" fill-rule="nonzero" opacity="1" stroke="none" vectornator:layerName="path"/>
</g>
<g fill="#2282fa" opacity="1" stroke="none">
<path d="M64.1335 18.9664L67.2257 18.9664L70.3392 28.1162L70.9111 30.0436L71.0805 30.0436L71.6524 28.1162L74.9353 18.9664L78.0275 18.9664L72.4784 34.1313L69.492 34.1313L64.1335 18.9664Z"/>
<path d="M86.5207 34.4702C85.0381 34.4702 83.6932 34.1207 82.4859 33.4218C81.2787 32.7228 80.3291 31.7662 79.6372 30.5519C78.9453 29.3376 78.5994 28.0032 78.5994 26.5489C78.5994 25.0945 78.9453 23.7602 79.6372 22.5458C80.3291 21.3315 81.2787 20.3749 82.4859 19.676C83.6932 18.977 85.0381 18.6275 86.5207 18.6275C88.0033 18.6275 89.3483 18.977 90.5555 19.676C91.7628 20.3749 92.7123 21.3315 93.4042 22.5458C94.0961 23.7602 94.442 25.0945 94.442 26.5489C94.442 28.0032 94.0961 29.3376 93.4042 30.5519C92.7123 31.7662 91.7628 32.7228 90.5555 33.4218C89.3483 34.1207 88.0033 34.4702 86.5207 34.4702ZM86.5207 31.7591C87.4526 31.7591 88.3034 31.5403 89.0729 31.1026C89.8425 30.6648 90.4496 30.0506 90.8944 29.2599C91.3392 28.4692 91.5616 27.5655 91.5616 26.5489C91.5616 25.5322 91.3392 24.6285 90.8944 23.8378C90.4496 23.0471 89.8425 22.4329 89.0729 21.9952C88.3034 21.5574 87.4526 21.3386 86.5207 21.3386C85.5888 21.3386 84.7345 21.5574 83.9579 21.9952C83.1813 22.4329 82.5707 23.0471 82.1259 23.8378C81.6811 24.6285 81.4587 25.5322 81.4587 26.5489C81.4587 27.5655 81.6811 28.4692 82.1259 29.2599C82.5707 30.0506 83.1813 30.6648 83.9579 31.1026C84.7345 31.5403 85.5888 31.7591 86.5207 31.7591Z"/>
<path d="M103.994 34.4702C102.512 34.4702 101.167 34.1207 99.9594 33.4218C98.7522 32.7228 97.8026 31.7662 97.1107 30.5519C96.4188 29.3376 96.0729 28.0032 96.0729 26.5489C96.0729 25.0945 96.4188 23.7602 97.1107 22.5458C97.8026 21.3315 98.7522 20.3749 99.9594 19.676C101.167 18.977 102.512 18.6275 103.994 18.6275C105.477 18.6275 106.822 18.977 108.029 19.676C109.236 20.3749 110.186 21.3315 110.878 22.5458C111.57 23.7602 111.916 25.0945 111.916 26.5489C111.916 28.0032 111.57 29.3376 110.878 30.5519C110.186 31.7662 109.236 32.7228 108.029 33.4218C106.822 34.1207 105.477 34.4702 103.994 34.4702ZM103.994 31.7591C104.926 31.7591 105.777 31.5403 106.546 31.1026C107.316 30.6648 107.923 30.0506 108.368 29.2599C108.813 28.4692 109.035 27.5655 109.035 26.5489C109.035 25.5322 108.813 24.6285 108.368 23.8378C107.923 23.0471 107.316 22.4329 106.546 21.9952C105.777 21.5574 104.926 21.3386 103.994 21.3386C103.062 21.3386 102.208 21.5574 101.431 21.9952C100.655 22.4329 100.044 23.0471 99.5994 23.8378C99.1546 24.6285 98.9322 25.5322 98.9322 26.5489C98.9322 27.5655 99.1546 28.4692 99.5994 29.2599C100.044 30.0506 100.655 30.6648 101.431 31.1026C102.208 31.5403 103.062 31.7591 103.994 31.7591Z"/>
<path d="M114.5 18.9664L118.185 18.9664L122.209 29.62L122.378 29.62L126.424 18.9664L130.109 18.9664L130.109 34.1313L127.271 34.1313L127.271 26.6548L127.44 24.1343L127.271 24.1343L123.416 34.1313L121.192 34.1313L117.316 24.1343L117.147 24.1343L117.316 26.6548L117.316 34.1313L114.5 34.1313L114.5 18.9664Z"/>
</g>
</g>
</svg>
